<mxfile host="Electron" agent="Mozilla/5.0 (Windows NT 10.0; Win64; x64) AppleWebKit/537.36 (KHTML, like Gecko) draw.io/25.0.2 Chrome/128.0.6613.186 Electron/32.2.5 Safari/537.36" version="25.0.2">
  <diagram name="Seite-1" id="4VhsXRwpozqBJ4YJXbb2">
    <mxGraphModel dx="1050" dy="621" grid="1" gridSize="10" guides="1" tooltips="1" connect="1" arrows="1" fold="1" page="1" pageScale="1" pageWidth="1654" pageHeight="2336" math="0" shadow="0">
      <root>
        <mxCell id="0" />
        <mxCell id="1" parent="0" />
        <mxCell id="fc5pYNwBbescbVxhXiLX-1" value="UIMain" style="swimlane;fontStyle=1;align=center;verticalAlign=top;childLayout=stackLayout;horizontal=1;startSize=26;horizontalStack=0;resizeParent=1;resizeParentMax=0;resizeLast=0;collapsible=1;marginBottom=0;whiteSpace=wrap;html=1;" parent="1" vertex="1">
          <mxGeometry x="370" y="210" width="170" height="130" as="geometry">
            <mxRectangle x="430" y="190" width="120" height="30" as="alternateBounds" />
          </mxGeometry>
        </mxCell>
        <mxCell id="fc5pYNwBbescbVxhXiLX-2" value="platzhalter" style="text;strokeColor=none;fillColor=none;align=left;verticalAlign=top;spacingLeft=4;spacingRight=4;overflow=hidden;rotatable=0;points=[[0,0.5],[1,0.5]];portConstraint=eastwest;whiteSpace=wrap;html=1;" parent="fc5pYNwBbescbVxhXiLX-1" vertex="1">
          <mxGeometry y="26" width="170" height="26" as="geometry" />
        </mxCell>
        <mxCell id="fc5pYNwBbescbVxhXiLX-3" value="" style="line;strokeWidth=1;fillColor=none;align=left;verticalAlign=middle;spacingTop=-1;spacingLeft=3;spacingRight=3;rotatable=0;labelPosition=right;points=[];portConstraint=eastwest;strokeColor=inherit;" parent="fc5pYNwBbescbVxhXiLX-1" vertex="1">
          <mxGeometry y="52" width="170" height="8" as="geometry" />
        </mxCell>
        <mxCell id="fc5pYNwBbescbVxhXiLX-4" value="+ __init__(): void&lt;div&gt;+ run_selected_option(): void&lt;/div&gt;" style="text;strokeColor=none;fillColor=none;align=left;verticalAlign=top;spacingLeft=4;spacingRight=4;overflow=hidden;rotatable=0;points=[[0,0.5],[1,0.5]];portConstraint=eastwest;whiteSpace=wrap;html=1;" parent="fc5pYNwBbescbVxhXiLX-1" vertex="1">
          <mxGeometry y="60" width="170" height="70" as="geometry" />
        </mxCell>
        <mxCell id="5gARS5CSZj7Vp_-cpZxx-1" value="UIBase" style="swimlane;fontStyle=1;align=center;verticalAlign=top;childLayout=stackLayout;horizontal=1;startSize=26;horizontalStack=0;resizeParent=1;resizeParentMax=0;resizeLast=0;collapsible=1;marginBottom=0;whiteSpace=wrap;html=1;" vertex="1" parent="1">
          <mxGeometry x="230" y="490" width="180" height="250" as="geometry">
            <mxRectangle x="430" y="190" width="120" height="30" as="alternateBounds" />
          </mxGeometry>
        </mxCell>
        <mxCell id="5gARS5CSZj7Vp_-cpZxx-2" value="platzhalter" style="text;strokeColor=none;fillColor=none;align=left;verticalAlign=top;spacingLeft=4;spacingRight=4;overflow=hidden;rotatable=0;points=[[0,0.5],[1,0.5]];portConstraint=eastwest;whiteSpace=wrap;html=1;" vertex="1" parent="5gARS5CSZj7Vp_-cpZxx-1">
          <mxGeometry y="26" width="180" height="26" as="geometry" />
        </mxCell>
        <mxCell id="5gARS5CSZj7Vp_-cpZxx-3" value="" style="line;strokeWidth=1;fillColor=none;align=left;verticalAlign=middle;spacingTop=-1;spacingLeft=3;spacingRight=3;rotatable=0;labelPosition=right;points=[];portConstraint=eastwest;strokeColor=inherit;" vertex="1" parent="5gARS5CSZj7Vp_-cpZxx-1">
          <mxGeometry y="52" width="180" height="8" as="geometry" />
        </mxCell>
        <mxCell id="5gARS5CSZj7Vp_-cpZxx-4" value="+ __init__(): void&lt;div&gt;+ compile_action(): void&lt;/div&gt;&lt;div&gt;+ process_data(): void&lt;/div&gt;&lt;div&gt;+ play_action(): void&lt;/div&gt;&lt;div&gt;+ add_column(): void&lt;/div&gt;&lt;div&gt;+ delete_column(): void&lt;/div&gt;&lt;div&gt;+ update_column_option(): void&lt;/div&gt;&lt;div&gt;+ clear_all_columns(): void&lt;/div&gt;&lt;div&gt;+ update_header_labels(): void&lt;/div&gt;&lt;div&gt;+ save_to_cfg(): void&lt;/div&gt;&lt;div&gt;+ load_from_cfg(): void&lt;/div&gt;&lt;div&gt;+ get_entries(): (String, Int, List)&lt;/div&gt;" style="text;strokeColor=none;fillColor=none;align=left;verticalAlign=top;spacingLeft=4;spacingRight=4;overflow=hidden;rotatable=0;points=[[0,0.5],[1,0.5]];portConstraint=eastwest;whiteSpace=wrap;html=1;" vertex="1" parent="5gARS5CSZj7Vp_-cpZxx-1">
          <mxGeometry y="60" width="180" height="190" as="geometry" />
        </mxCell>
        <mxCell id="5gARS5CSZj7Vp_-cpZxx-5" value="UIChord" style="swimlane;fontStyle=1;align=center;verticalAlign=top;childLayout=stackLayout;horizontal=1;startSize=26;horizontalStack=0;resizeParent=1;resizeParentMax=0;resizeLast=0;collapsible=1;marginBottom=0;whiteSpace=wrap;html=1;" vertex="1" parent="1">
          <mxGeometry x="510" y="400" width="340" height="160" as="geometry">
            <mxRectangle x="430" y="190" width="120" height="30" as="alternateBounds" />
          </mxGeometry>
        </mxCell>
        <mxCell id="5gARS5CSZj7Vp_-cpZxx-6" value="platzhalter" style="text;strokeColor=none;fillColor=none;align=left;verticalAlign=top;spacingLeft=4;spacingRight=4;overflow=hidden;rotatable=0;points=[[0,0.5],[1,0.5]];portConstraint=eastwest;whiteSpace=wrap;html=1;" vertex="1" parent="5gARS5CSZj7Vp_-cpZxx-5">
          <mxGeometry y="26" width="340" height="26" as="geometry" />
        </mxCell>
        <mxCell id="5gARS5CSZj7Vp_-cpZxx-7" value="" style="line;strokeWidth=1;fillColor=none;align=left;verticalAlign=middle;spacingTop=-1;spacingLeft=3;spacingRight=3;rotatable=0;labelPosition=right;points=[];portConstraint=eastwest;strokeColor=inherit;" vertex="1" parent="5gARS5CSZj7Vp_-cpZxx-5">
          <mxGeometry y="52" width="340" height="8" as="geometry" />
        </mxCell>
        <mxCell id="5gARS5CSZj7Vp_-cpZxx-8" value="+ __init__(): void&lt;div&gt;+ process_data(title: String, bpm: Int, table_values: List): void&lt;/div&gt;&lt;div&gt;+ initialize_table(): void&lt;/div&gt;&lt;div&gt;+ add_chord(): void&lt;/div&gt;&lt;div&gt;+ delete_chord(): void&lt;/div&gt;&lt;div&gt;+ update_chords_display(): void&lt;/div&gt;" style="text;strokeColor=none;fillColor=none;align=left;verticalAlign=top;spacingLeft=4;spacingRight=4;overflow=hidden;rotatable=0;points=[[0,0.5],[1,0.5]];portConstraint=eastwest;whiteSpace=wrap;html=1;" vertex="1" parent="5gARS5CSZj7Vp_-cpZxx-5">
          <mxGeometry y="60" width="340" height="100" as="geometry" />
        </mxCell>
        <mxCell id="5gARS5CSZj7Vp_-cpZxx-9" value="UISheet" style="swimlane;fontStyle=1;align=center;verticalAlign=top;childLayout=stackLayout;horizontal=1;startSize=26;horizontalStack=0;resizeParent=1;resizeParentMax=0;resizeLast=0;collapsible=1;marginBottom=0;whiteSpace=wrap;html=1;" vertex="1" parent="1">
          <mxGeometry x="510" y="580" width="340" height="120" as="geometry">
            <mxRectangle x="430" y="190" width="120" height="30" as="alternateBounds" />
          </mxGeometry>
        </mxCell>
        <mxCell id="5gARS5CSZj7Vp_-cpZxx-10" value="platzhalter" style="text;strokeColor=none;fillColor=none;align=left;verticalAlign=top;spacingLeft=4;spacingRight=4;overflow=hidden;rotatable=0;points=[[0,0.5],[1,0.5]];portConstraint=eastwest;whiteSpace=wrap;html=1;" vertex="1" parent="5gARS5CSZj7Vp_-cpZxx-9">
          <mxGeometry y="26" width="340" height="26" as="geometry" />
        </mxCell>
        <mxCell id="5gARS5CSZj7Vp_-cpZxx-11" value="" style="line;strokeWidth=1;fillColor=none;align=left;verticalAlign=middle;spacingTop=-1;spacingLeft=3;spacingRight=3;rotatable=0;labelPosition=right;points=[];portConstraint=eastwest;strokeColor=inherit;" vertex="1" parent="5gARS5CSZj7Vp_-cpZxx-9">
          <mxGeometry y="52" width="340" height="8" as="geometry" />
        </mxCell>
        <mxCell id="5gARS5CSZj7Vp_-cpZxx-12" value="+ __init__(): void&lt;div&gt;+ process_data(title: String, bpm: Int, table_values: List): void&lt;/div&gt;&lt;div&gt;+ initialize_table(): void&lt;/div&gt;" style="text;strokeColor=none;fillColor=none;align=left;verticalAlign=top;spacingLeft=4;spacingRight=4;overflow=hidden;rotatable=0;points=[[0,0.5],[1,0.5]];portConstraint=eastwest;whiteSpace=wrap;html=1;" vertex="1" parent="5gARS5CSZj7Vp_-cpZxx-9">
          <mxGeometry y="60" width="340" height="60" as="geometry" />
        </mxCell>
        <mxCell id="5gARS5CSZj7Vp_-cpZxx-13" value="UITab" style="swimlane;fontStyle=1;align=center;verticalAlign=top;childLayout=stackLayout;horizontal=1;startSize=26;horizontalStack=0;resizeParent=1;resizeParentMax=0;resizeLast=0;collapsible=1;marginBottom=0;whiteSpace=wrap;html=1;" vertex="1" parent="1">
          <mxGeometry x="510" y="720" width="340" height="120" as="geometry">
            <mxRectangle x="430" y="190" width="120" height="30" as="alternateBounds" />
          </mxGeometry>
        </mxCell>
        <mxCell id="5gARS5CSZj7Vp_-cpZxx-14" value="platzhalter" style="text;strokeColor=none;fillColor=none;align=left;verticalAlign=top;spacingLeft=4;spacingRight=4;overflow=hidden;rotatable=0;points=[[0,0.5],[1,0.5]];portConstraint=eastwest;whiteSpace=wrap;html=1;" vertex="1" parent="5gARS5CSZj7Vp_-cpZxx-13">
          <mxGeometry y="26" width="340" height="26" as="geometry" />
        </mxCell>
        <mxCell id="5gARS5CSZj7Vp_-cpZxx-15" value="" style="line;strokeWidth=1;fillColor=none;align=left;verticalAlign=middle;spacingTop=-1;spacingLeft=3;spacingRight=3;rotatable=0;labelPosition=right;points=[];portConstraint=eastwest;strokeColor=inherit;" vertex="1" parent="5gARS5CSZj7Vp_-cpZxx-13">
          <mxGeometry y="52" width="340" height="8" as="geometry" />
        </mxCell>
        <mxCell id="5gARS5CSZj7Vp_-cpZxx-16" value="+ __init__(): void&lt;div&gt;+ process_data(title: String, bpm: Int, table_values: List): void&lt;/div&gt;&lt;div&gt;+ initialize_table(): void&lt;/div&gt;" style="text;strokeColor=none;fillColor=none;align=left;verticalAlign=top;spacingLeft=4;spacingRight=4;overflow=hidden;rotatable=0;points=[[0,0.5],[1,0.5]];portConstraint=eastwest;whiteSpace=wrap;html=1;" vertex="1" parent="5gARS5CSZj7Vp_-cpZxx-13">
          <mxGeometry y="60" width="340" height="60" as="geometry" />
        </mxCell>
        <mxCell id="5gARS5CSZj7Vp_-cpZxx-17" value="ConvertBase" style="swimlane;fontStyle=1;align=center;verticalAlign=top;childLayout=stackLayout;horizontal=1;startSize=26;horizontalStack=0;resizeParent=1;resizeParentMax=0;resizeLast=0;collapsible=1;marginBottom=0;whiteSpace=wrap;html=1;" vertex="1" parent="1">
          <mxGeometry x="975" y="50" width="110" height="110" as="geometry">
            <mxRectangle x="430" y="190" width="120" height="30" as="alternateBounds" />
          </mxGeometry>
        </mxCell>
        <mxCell id="5gARS5CSZj7Vp_-cpZxx-18" value="+ title: String&lt;div&gt;+ bpm: Int&lt;/div&gt;" style="text;strokeColor=none;fillColor=none;align=left;verticalAlign=top;spacingLeft=4;spacingRight=4;overflow=hidden;rotatable=0;points=[[0,0.5],[1,0.5]];portConstraint=eastwest;whiteSpace=wrap;html=1;" vertex="1" parent="5gARS5CSZj7Vp_-cpZxx-17">
          <mxGeometry y="26" width="110" height="34" as="geometry" />
        </mxCell>
        <mxCell id="5gARS5CSZj7Vp_-cpZxx-19" value="" style="line;strokeWidth=1;fillColor=none;align=left;verticalAlign=middle;spacingTop=-1;spacingLeft=3;spacingRight=3;rotatable=0;labelPosition=right;points=[];portConstraint=eastwest;strokeColor=inherit;" vertex="1" parent="5gARS5CSZj7Vp_-cpZxx-17">
          <mxGeometry y="60" width="110" height="8" as="geometry" />
        </mxCell>
        <mxCell id="5gARS5CSZj7Vp_-cpZxx-20" value="+ __init__(): void&lt;div&gt;+ write_csv(): void&lt;/div&gt;&lt;div&gt;&lt;br&gt;&lt;/div&gt;" style="text;strokeColor=none;fillColor=none;align=left;verticalAlign=top;spacingLeft=4;spacingRight=4;overflow=hidden;rotatable=0;points=[[0,0.5],[1,0.5]];portConstraint=eastwest;whiteSpace=wrap;html=1;" vertex="1" parent="5gARS5CSZj7Vp_-cpZxx-17">
          <mxGeometry y="68" width="110" height="42" as="geometry" />
        </mxCell>
        <mxCell id="5gARS5CSZj7Vp_-cpZxx-45" style="edgeStyle=orthogonalEdgeStyle;rounded=0;orthogonalLoop=1;jettySize=auto;html=1;exitX=0.5;exitY=0;exitDx=0;exitDy=0;endArrow=block;endFill=0;" edge="1" parent="1" source="5gARS5CSZj7Vp_-cpZxx-21" target="5gARS5CSZj7Vp_-cpZxx-20">
          <mxGeometry relative="1" as="geometry" />
        </mxCell>
        <mxCell id="5gARS5CSZj7Vp_-cpZxx-21" value="ConvertChords" style="swimlane;fontStyle=1;align=center;verticalAlign=top;childLayout=stackLayout;horizontal=1;startSize=26;horizontalStack=0;resizeParent=1;resizeParentMax=0;resizeLast=0;collapsible=1;marginBottom=0;whiteSpace=wrap;html=1;" vertex="1" parent="1">
          <mxGeometry x="800" y="210" width="150" height="150" as="geometry">
            <mxRectangle x="430" y="190" width="120" height="30" as="alternateBounds" />
          </mxGeometry>
        </mxCell>
        <mxCell id="5gARS5CSZj7Vp_-cpZxx-22" value="+ title: String&lt;div&gt;+ bpm: Int&lt;/div&gt;&lt;div&gt;+ table_values: List&lt;/div&gt;" style="text;strokeColor=none;fillColor=none;align=left;verticalAlign=top;spacingLeft=4;spacingRight=4;overflow=hidden;rotatable=0;points=[[0,0.5],[1,0.5]];portConstraint=eastwest;whiteSpace=wrap;html=1;" vertex="1" parent="5gARS5CSZj7Vp_-cpZxx-21">
          <mxGeometry y="26" width="150" height="54" as="geometry" />
        </mxCell>
        <mxCell id="5gARS5CSZj7Vp_-cpZxx-23" value="" style="line;strokeWidth=1;fillColor=none;align=left;verticalAlign=middle;spacingTop=-1;spacingLeft=3;spacingRight=3;rotatable=0;labelPosition=right;points=[];portConstraint=eastwest;strokeColor=inherit;" vertex="1" parent="5gARS5CSZj7Vp_-cpZxx-21">
          <mxGeometry y="80" width="150" height="8" as="geometry" />
        </mxCell>
        <mxCell id="5gARS5CSZj7Vp_-cpZxx-24" value="+ __init__(): void&lt;div&gt;+ add_new_chord(): void&lt;br&gt;&lt;div&gt;+ convertion(): void&lt;/div&gt;&lt;div&gt;&lt;br&gt;&lt;/div&gt;&lt;/div&gt;" style="text;strokeColor=none;fillColor=none;align=left;verticalAlign=top;spacingLeft=4;spacingRight=4;overflow=hidden;rotatable=0;points=[[0,0.5],[1,0.5]];portConstraint=eastwest;whiteSpace=wrap;html=1;" vertex="1" parent="5gARS5CSZj7Vp_-cpZxx-21">
          <mxGeometry y="88" width="150" height="62" as="geometry" />
        </mxCell>
        <mxCell id="5gARS5CSZj7Vp_-cpZxx-25" value="ConvertSheet" style="swimlane;fontStyle=1;align=center;verticalAlign=top;childLayout=stackLayout;horizontal=1;startSize=26;horizontalStack=0;resizeParent=1;resizeParentMax=0;resizeLast=0;collapsible=1;marginBottom=0;whiteSpace=wrap;html=1;" vertex="1" parent="1">
          <mxGeometry x="970" y="210" width="120" height="130" as="geometry">
            <mxRectangle x="430" y="190" width="120" height="30" as="alternateBounds" />
          </mxGeometry>
        </mxCell>
        <mxCell id="5gARS5CSZj7Vp_-cpZxx-26" value="+ title: String&lt;div&gt;+ bpm: Int&lt;/div&gt;&lt;div&gt;+ table_values: List&lt;/div&gt;" style="text;strokeColor=none;fillColor=none;align=left;verticalAlign=top;spacingLeft=4;spacingRight=4;overflow=hidden;rotatable=0;points=[[0,0.5],[1,0.5]];portConstraint=eastwest;whiteSpace=wrap;html=1;" vertex="1" parent="5gARS5CSZj7Vp_-cpZxx-25">
          <mxGeometry y="26" width="120" height="54" as="geometry" />
        </mxCell>
        <mxCell id="5gARS5CSZj7Vp_-cpZxx-27" value="" style="line;strokeWidth=1;fillColor=none;align=left;verticalAlign=middle;spacingTop=-1;spacingLeft=3;spacingRight=3;rotatable=0;labelPosition=right;points=[];portConstraint=eastwest;strokeColor=inherit;" vertex="1" parent="5gARS5CSZj7Vp_-cpZxx-25">
          <mxGeometry y="80" width="120" height="8" as="geometry" />
        </mxCell>
        <mxCell id="5gARS5CSZj7Vp_-cpZxx-28" value="+ __init__(): void&lt;div&gt;&lt;div&gt;+ convertion(): void&lt;/div&gt;&lt;div&gt;&lt;br&gt;&lt;/div&gt;&lt;/div&gt;" style="text;strokeColor=none;fillColor=none;align=left;verticalAlign=top;spacingLeft=4;spacingRight=4;overflow=hidden;rotatable=0;points=[[0,0.5],[1,0.5]];portConstraint=eastwest;whiteSpace=wrap;html=1;" vertex="1" parent="5gARS5CSZj7Vp_-cpZxx-25">
          <mxGeometry y="88" width="120" height="42" as="geometry" />
        </mxCell>
        <mxCell id="5gARS5CSZj7Vp_-cpZxx-47" style="edgeStyle=orthogonalEdgeStyle;rounded=0;orthogonalLoop=1;jettySize=auto;html=1;entryX=1;entryY=0.5;entryDx=0;entryDy=0;endArrow=block;endFill=0;" edge="1" parent="1" source="5gARS5CSZj7Vp_-cpZxx-29" target="5gARS5CSZj7Vp_-cpZxx-20">
          <mxGeometry relative="1" as="geometry">
            <Array as="points">
              <mxPoint x="1130" y="139" />
            </Array>
          </mxGeometry>
        </mxCell>
        <mxCell id="5gARS5CSZj7Vp_-cpZxx-29" value="ConvertTab" style="swimlane;fontStyle=1;align=center;verticalAlign=top;childLayout=stackLayout;horizontal=1;startSize=26;horizontalStack=0;resizeParent=1;resizeParentMax=0;resizeLast=0;collapsible=1;marginBottom=0;whiteSpace=wrap;html=1;" vertex="1" parent="1">
          <mxGeometry x="1110" y="210" width="120" height="130" as="geometry">
            <mxRectangle x="430" y="190" width="120" height="30" as="alternateBounds" />
          </mxGeometry>
        </mxCell>
        <mxCell id="5gARS5CSZj7Vp_-cpZxx-31" value="" style="line;strokeWidth=1;fillColor=none;align=left;verticalAlign=middle;spacingTop=-1;spacingLeft=3;spacingRight=3;rotatable=0;labelPosition=right;points=[];portConstraint=eastwest;strokeColor=inherit;" vertex="1" parent="5gARS5CSZj7Vp_-cpZxx-29">
          <mxGeometry y="26" width="120" height="8" as="geometry" />
        </mxCell>
        <mxCell id="5gARS5CSZj7Vp_-cpZxx-30" value="+ title: String&lt;div&gt;+ bpm: Int&lt;/div&gt;&lt;div&gt;+ table_values: List&lt;/div&gt;" style="text;strokeColor=none;fillColor=none;align=left;verticalAlign=top;spacingLeft=4;spacingRight=4;overflow=hidden;rotatable=0;points=[[0,0.5],[1,0.5]];portConstraint=eastwest;whiteSpace=wrap;html=1;" vertex="1" parent="5gARS5CSZj7Vp_-cpZxx-29">
          <mxGeometry y="34" width="120" height="54" as="geometry" />
        </mxCell>
        <mxCell id="5gARS5CSZj7Vp_-cpZxx-32" value="+ __init__(): void&lt;div&gt;&lt;div&gt;+ convertion(): void&lt;/div&gt;&lt;div&gt;&lt;br&gt;&lt;/div&gt;&lt;/div&gt;" style="text;strokeColor=none;fillColor=none;align=left;verticalAlign=top;spacingLeft=4;spacingRight=4;overflow=hidden;rotatable=0;points=[[0,0.5],[1,0.5]];portConstraint=eastwest;whiteSpace=wrap;html=1;" vertex="1" parent="5gARS5CSZj7Vp_-cpZxx-29">
          <mxGeometry y="88" width="120" height="42" as="geometry" />
        </mxCell>
        <mxCell id="5gARS5CSZj7Vp_-cpZxx-33" value="Play" style="swimlane;fontStyle=1;align=center;verticalAlign=top;childLayout=stackLayout;horizontal=1;startSize=26;horizontalStack=0;resizeParent=1;resizeParentMax=0;resizeLast=0;collapsible=1;marginBottom=0;whiteSpace=wrap;html=1;" vertex="1" parent="1">
          <mxGeometry x="40" y="360" width="160" height="130" as="geometry">
            <mxRectangle x="430" y="190" width="120" height="30" as="alternateBounds" />
          </mxGeometry>
        </mxCell>
        <mxCell id="5gARS5CSZj7Vp_-cpZxx-34" value="+ title: String" style="text;strokeColor=none;fillColor=none;align=left;verticalAlign=top;spacingLeft=4;spacingRight=4;overflow=hidden;rotatable=0;points=[[0,0.5],[1,0.5]];portConstraint=eastwest;whiteSpace=wrap;html=1;" vertex="1" parent="5gARS5CSZj7Vp_-cpZxx-33">
          <mxGeometry y="26" width="160" height="24" as="geometry" />
        </mxCell>
        <mxCell id="5gARS5CSZj7Vp_-cpZxx-35" value="" style="line;strokeWidth=1;fillColor=none;align=left;verticalAlign=middle;spacingTop=-1;spacingLeft=3;spacingRight=3;rotatable=0;labelPosition=right;points=[];portConstraint=eastwest;strokeColor=inherit;" vertex="1" parent="5gARS5CSZj7Vp_-cpZxx-33">
          <mxGeometry y="50" width="160" height="8" as="geometry" />
        </mxCell>
        <mxCell id="5gARS5CSZj7Vp_-cpZxx-36" value="+ __init__(): void&lt;div&gt;&lt;div&gt;+ convert_to_play(): void&lt;/div&gt;&lt;div&gt;+ play(): void&lt;/div&gt;&lt;div&gt;+ press_key(n: String): void&lt;/div&gt;&lt;div&gt;&lt;br&gt;&lt;/div&gt;&lt;/div&gt;" style="text;strokeColor=none;fillColor=none;align=left;verticalAlign=top;spacingLeft=4;spacingRight=4;overflow=hidden;rotatable=0;points=[[0,0.5],[1,0.5]];portConstraint=eastwest;whiteSpace=wrap;html=1;" vertex="1" parent="5gARS5CSZj7Vp_-cpZxx-33">
          <mxGeometry y="58" width="160" height="72" as="geometry" />
        </mxCell>
        <mxCell id="5gARS5CSZj7Vp_-cpZxx-37" value="Chord" style="swimlane;fontStyle=1;align=center;verticalAlign=top;childLayout=stackLayout;horizontal=1;startSize=26;horizontalStack=0;resizeParent=1;resizeParentMax=0;resizeLast=0;collapsible=1;marginBottom=0;whiteSpace=wrap;html=1;" vertex="1" parent="1">
          <mxGeometry x="640" y="40" width="120" height="150" as="geometry">
            <mxRectangle x="430" y="190" width="120" height="30" as="alternateBounds" />
          </mxGeometry>
        </mxCell>
        <mxCell id="5gARS5CSZj7Vp_-cpZxx-38" value="+ name: String&lt;div&gt;+ notes: List&lt;/div&gt;" style="text;strokeColor=none;fillColor=none;align=left;verticalAlign=top;spacingLeft=4;spacingRight=4;overflow=hidden;rotatable=0;points=[[0,0.5],[1,0.5]];portConstraint=eastwest;whiteSpace=wrap;html=1;" vertex="1" parent="5gARS5CSZj7Vp_-cpZxx-37">
          <mxGeometry y="26" width="120" height="44" as="geometry" />
        </mxCell>
        <mxCell id="5gARS5CSZj7Vp_-cpZxx-39" value="" style="line;strokeWidth=1;fillColor=none;align=left;verticalAlign=middle;spacingTop=-1;spacingLeft=3;spacingRight=3;rotatable=0;labelPosition=right;points=[];portConstraint=eastwest;strokeColor=inherit;" vertex="1" parent="5gARS5CSZj7Vp_-cpZxx-37">
          <mxGeometry y="70" width="120" height="8" as="geometry" />
        </mxCell>
        <mxCell id="5gARS5CSZj7Vp_-cpZxx-40" value="+ __init__(): void&lt;div&gt;&lt;div&gt;+ __repr__(): String&lt;/div&gt;&lt;/div&gt;&lt;div&gt;+ get_notes(): List&lt;/div&gt;" style="text;strokeColor=none;fillColor=none;align=left;verticalAlign=top;spacingLeft=4;spacingRight=4;overflow=hidden;rotatable=0;points=[[0,0.5],[1,0.5]];portConstraint=eastwest;whiteSpace=wrap;html=1;" vertex="1" parent="5gARS5CSZj7Vp_-cpZxx-37">
          <mxGeometry y="78" width="120" height="72" as="geometry" />
        </mxCell>
        <mxCell id="5gARS5CSZj7Vp_-cpZxx-46" style="edgeStyle=orthogonalEdgeStyle;rounded=0;orthogonalLoop=1;jettySize=auto;html=1;exitX=0.5;exitY=0;exitDx=0;exitDy=0;entryX=0.501;entryY=1.001;entryDx=0;entryDy=0;entryPerimeter=0;endArrow=block;endFill=0;" edge="1" parent="1" source="5gARS5CSZj7Vp_-cpZxx-25" target="5gARS5CSZj7Vp_-cpZxx-20">
          <mxGeometry relative="1" as="geometry" />
        </mxCell>
        <mxCell id="5gARS5CSZj7Vp_-cpZxx-53" style="edgeStyle=orthogonalEdgeStyle;rounded=0;orthogonalLoop=1;jettySize=auto;html=1;exitX=0;exitY=0.5;exitDx=0;exitDy=0;entryX=0.999;entryY=0.923;entryDx=0;entryDy=0;entryPerimeter=0;endArrow=block;endFill=0;" edge="1" parent="1" target="5gARS5CSZj7Vp_-cpZxx-2">
          <mxGeometry relative="1" as="geometry">
            <mxPoint x="510" y="540" as="sourcePoint" />
            <mxPoint x="460.17999999999995" y="540" as="targetPoint" />
          </mxGeometry>
        </mxCell>
        <mxCell id="5gARS5CSZj7Vp_-cpZxx-55" style="edgeStyle=orthogonalEdgeStyle;rounded=0;orthogonalLoop=1;jettySize=auto;html=1;exitX=0.17;exitY=1.014;exitDx=0;exitDy=0;endArrow=open;endFill=0;endSize=6;exitPerimeter=0;entryX=0.998;entryY=0.166;entryDx=0;entryDy=0;entryPerimeter=0;dashed=1;dashPattern=8 8;" edge="1" parent="1" source="5gARS5CSZj7Vp_-cpZxx-28" target="5gARS5CSZj7Vp_-cpZxx-9">
          <mxGeometry relative="1" as="geometry">
            <mxPoint x="620" y="890" as="targetPoint" />
            <mxPoint x="820" y="680" as="sourcePoint" />
            <Array as="points">
              <mxPoint x="990" y="600" />
            </Array>
          </mxGeometry>
        </mxCell>
        <mxCell id="5gARS5CSZj7Vp_-cpZxx-59" style="edgeStyle=orthogonalEdgeStyle;rounded=0;orthogonalLoop=1;jettySize=auto;html=1;exitX=0.732;exitY=0.999;exitDx=0;exitDy=0;endArrow=open;endFill=0;endSize=6;exitPerimeter=0;entryX=0.998;entryY=0.166;entryDx=0;entryDy=0;entryPerimeter=0;dashed=1;dashPattern=8 8;" edge="1" parent="1" source="5gARS5CSZj7Vp_-cpZxx-24">
          <mxGeometry relative="1" as="geometry">
            <mxPoint x="850" y="439" as="targetPoint" />
            <mxPoint x="907" y="362" as="sourcePoint" />
            <Array as="points">
              <mxPoint x="910" y="362" />
              <mxPoint x="910" y="362" />
              <mxPoint x="910" y="439" />
            </Array>
          </mxGeometry>
        </mxCell>
        <mxCell id="5gARS5CSZj7Vp_-cpZxx-61" style="edgeStyle=orthogonalEdgeStyle;rounded=0;orthogonalLoop=1;jettySize=auto;html=1;exitX=0.17;exitY=1.014;exitDx=0;exitDy=0;endArrow=open;endFill=0;endSize=6;exitPerimeter=0;dashed=1;dashPattern=8 8;" edge="1" parent="1" target="5gARS5CSZj7Vp_-cpZxx-13">
          <mxGeometry relative="1" as="geometry">
            <mxPoint x="870" y="740" as="targetPoint" />
            <mxPoint x="1131" y="340" as="sourcePoint" />
            <Array as="points">
              <mxPoint x="1131" y="740" />
            </Array>
          </mxGeometry>
        </mxCell>
        <mxCell id="5gARS5CSZj7Vp_-cpZxx-62" style="edgeStyle=orthogonalEdgeStyle;rounded=0;orthogonalLoop=1;jettySize=auto;html=1;exitX=1;exitY=0.5;exitDx=0;exitDy=0;entryX=0.25;entryY=0;entryDx=0;entryDy=0;endArrow=open;endFill=0;endSize=6;dashed=1;dashPattern=8 8;" edge="1" parent="1" source="5gARS5CSZj7Vp_-cpZxx-36" target="5gARS5CSZj7Vp_-cpZxx-1">
          <mxGeometry relative="1" as="geometry">
            <Array as="points">
              <mxPoint x="275" y="454" />
            </Array>
          </mxGeometry>
        </mxCell>
        <mxCell id="5gARS5CSZj7Vp_-cpZxx-63" style="edgeStyle=orthogonalEdgeStyle;rounded=0;orthogonalLoop=1;jettySize=auto;html=1;exitX=0;exitY=0.5;exitDx=0;exitDy=0;entryX=0.998;entryY=0.211;entryDx=0;entryDy=0;entryPerimeter=0;endArrow=block;endFill=0;" edge="1" parent="1" target="5gARS5CSZj7Vp_-cpZxx-4">
          <mxGeometry relative="1" as="geometry">
            <mxPoint x="509.81999999999994" y="590" as="sourcePoint" />
            <mxPoint x="459.99999999999994" y="590" as="targetPoint" />
          </mxGeometry>
        </mxCell>
        <mxCell id="5gARS5CSZj7Vp_-cpZxx-64" style="edgeStyle=orthogonalEdgeStyle;rounded=0;orthogonalLoop=1;jettySize=auto;html=1;exitX=0;exitY=0.5;exitDx=0;exitDy=0;entryX=0.998;entryY=0.211;entryDx=0;entryDy=0;entryPerimeter=0;endArrow=block;endFill=0;" edge="1" parent="1">
          <mxGeometry relative="1" as="geometry">
            <mxPoint x="509.81999999999994" y="730" as="sourcePoint" />
            <mxPoint x="410" y="730" as="targetPoint" />
          </mxGeometry>
        </mxCell>
        <mxCell id="5gARS5CSZj7Vp_-cpZxx-65" style="edgeStyle=orthogonalEdgeStyle;rounded=0;orthogonalLoop=1;jettySize=auto;html=1;endArrow=none;endFill=0;endSize=6;entryX=0;entryY=0.5;entryDx=0;entryDy=0;startArrow=open;startFill=0;targetPerimeterSpacing=6;sourcePerimeterSpacing=6;startSize=6;dashed=1;dashPattern=8 8;" edge="1" parent="1" target="5gARS5CSZj7Vp_-cpZxx-6">
          <mxGeometry relative="1" as="geometry">
            <mxPoint x="350" y="599" as="targetPoint" />
            <mxPoint x="480" y="340" as="sourcePoint" />
            <Array as="points">
              <mxPoint x="480" y="340" />
              <mxPoint x="480" y="439" />
            </Array>
          </mxGeometry>
        </mxCell>
        <mxCell id="5gARS5CSZj7Vp_-cpZxx-67" style="edgeStyle=orthogonalEdgeStyle;rounded=0;orthogonalLoop=1;jettySize=auto;html=1;endArrow=none;endFill=0;endSize=6;entryX=0;entryY=0.527;entryDx=0;entryDy=0;startArrow=open;startFill=0;targetPerimeterSpacing=26;sourcePerimeterSpacing=13;startSize=6;entryPerimeter=0;jumpStyle=gap;jumpSize=9;dashed=1;dashPattern=8 8;" edge="1" parent="1" target="5gARS5CSZj7Vp_-cpZxx-10">
          <mxGeometry relative="1" as="geometry">
            <mxPoint x="490" y="439" as="targetPoint" />
            <mxPoint x="460" y="340" as="sourcePoint" />
            <Array as="points">
              <mxPoint x="460" y="620" />
            </Array>
          </mxGeometry>
        </mxCell>
        <mxCell id="5gARS5CSZj7Vp_-cpZxx-69" style="edgeStyle=orthogonalEdgeStyle;rounded=0;orthogonalLoop=1;jettySize=auto;html=1;endArrow=none;endFill=0;endSize=6;entryX=-0.001;entryY=0.544;entryDx=0;entryDy=0;startArrow=open;startFill=0;targetPerimeterSpacing=26;sourcePerimeterSpacing=13;startSize=6;entryPerimeter=0;jumpStyle=gap;jumpSize=9;dashed=1;dashPattern=8 8;" edge="1" parent="1" target="5gARS5CSZj7Vp_-cpZxx-14">
          <mxGeometry relative="1" as="geometry">
            <mxPoint x="490" y="620" as="targetPoint" />
            <mxPoint x="440" y="340" as="sourcePoint" />
            <Array as="points">
              <mxPoint x="440" y="760" />
              <mxPoint x="470" y="760" />
            </Array>
          </mxGeometry>
        </mxCell>
        <mxCell id="5gARS5CSZj7Vp_-cpZxx-70" style="edgeStyle=orthogonalEdgeStyle;rounded=0;orthogonalLoop=1;jettySize=auto;html=1;endArrow=diamondThin;endFill=1;endSize=18;entryX=0.726;entryY=1.007;entryDx=0;entryDy=0;entryPerimeter=0;" edge="1" parent="1" target="5gARS5CSZj7Vp_-cpZxx-40">
          <mxGeometry relative="1" as="geometry">
            <mxPoint x="699.7" y="312.7" as="targetPoint" />
            <mxPoint x="800" y="250" as="sourcePoint" />
            <Array as="points">
              <mxPoint x="800" y="250" />
              <mxPoint x="727" y="250" />
            </Array>
          </mxGeometry>
        </mxCell>
      </root>
    </mxGraphModel>
  </diagram>
</mxfile>
